<svg xmlns="http://www.w3.org/2000/svg" viewBox="0 0 124 52">
  <defs><clipPath id="clip"><rect x="1" y="1" width="122" height="50" rx="25"/></clipPath><linearGradient id="sky" x2="1" y2="1"><stop stop-color="#8ac3d3"/><stop offset="1" stop-color="#3c90b7"/></linearGradient><filter id="shadow"><feDropShadow dx="0" dy="2" stdDeviation="2" flood-opacity=".3"/></filter></defs>
  <g clip-path="url(#clip)"><rect width="124" height="52" fill="url(#sky)"/><path d="M43-5c15 10 21 30 18 58M55-5c15 10 20 30 18 58M67-5c14 10 19 30 17 58" fill="none" stroke="#235f86" stroke-opacity=".17" stroke-width="9"/><path d="M28 50c9-12 24-13 32-5 9-11 21-13 32-5 12-11 25-9 38 4v14H23" fill="#e4f1f7"/><path d="M70 53c10-15 26-16 36-5 8-10 18-9 27 0v9H65" fill="#fff"/><circle cx="27" cy="26" r="18" fill="#ffc21e" stroke="#ffe795" stroke-width="2" filter="url(#shadow)"/></g><rect x="1" y="1" width="122" height="50" rx="25" fill="none" stroke="#9fb8c1" stroke-opacity=".8" stroke-width="2"/>
</svg>
